<mxfile host="app.diagrams.net" agent="Mozilla/5.0 (Windows NT 10.0; Win64; x64) AppleWebKit/537.36 (KHTML, like Gecko) Chrome/128.0.0.0 Safari/537.36 OPR/114.0.0.0 (Edition std-1)" version="24.9.2">
  <diagram name="Pagina-1" id="FTkDus6LmI__mnNcwHTE">
    <mxGraphModel dx="2268" dy="770" grid="1" gridSize="10" guides="1" tooltips="1" connect="1" arrows="1" fold="1" page="1" pageScale="1" pageWidth="827" pageHeight="1169" math="0" shadow="0">
      <root>
        <mxCell id="0" />
        <mxCell id="1" parent="0" />
        <mxCell id="SRVCZ6UlInMh2GYLfJY8-31" value="Flutter Sensor 1" style="html=1;whiteSpace=wrap;fillColor=#0050ef;fontColor=#ffffff;strokeColor=#001DBC;" parent="1" vertex="1">
          <mxGeometry x="670" y="225" width="90" height="30" as="geometry" />
        </mxCell>
        <mxCell id="SRVCZ6UlInMh2GYLfJY8-32" value="Flutter Sensor 2" style="html=1;whiteSpace=wrap;fillColor=#0050ef;fontColor=#ffffff;strokeColor=#001DBC;" parent="1" vertex="1">
          <mxGeometry x="670" y="260" width="90" height="30" as="geometry" />
        </mxCell>
        <mxCell id="SRVCZ6UlInMh2GYLfJY8-33" value="Flutter Sensor 3" style="html=1;whiteSpace=wrap;fillColor=#0050ef;fontColor=#ffffff;strokeColor=#001DBC;" parent="1" vertex="1">
          <mxGeometry x="670" y="290" width="90" height="30" as="geometry" />
        </mxCell>
        <mxCell id="SRVCZ6UlInMh2GYLfJY8-34" value="Flutter Sensor 4" style="html=1;whiteSpace=wrap;fillColor=#0050ef;fontColor=#ffffff;strokeColor=#001DBC;" parent="1" vertex="1">
          <mxGeometry x="670" y="365" width="90" height="30" as="geometry" />
        </mxCell>
        <mxCell id="SRVCZ6UlInMh2GYLfJY8-35" value="Flutter Sensor 5" style="html=1;whiteSpace=wrap;fillColor=#0050ef;fontColor=#ffffff;strokeColor=#001DBC;" parent="1" vertex="1">
          <mxGeometry x="670" y="405" width="90" height="30" as="geometry" />
        </mxCell>
        <mxCell id="SRVCZ6UlInMh2GYLfJY8-36" value="Flutter Sensor 6" style="html=1;whiteSpace=wrap;fillColor=#0050ef;fontColor=#ffffff;strokeColor=#001DBC;" parent="1" vertex="1">
          <mxGeometry x="670" y="437.5" width="90" height="30" as="geometry" />
        </mxCell>
        <mxCell id="SRVCZ6UlInMh2GYLfJY8-37" value="Flutter Sensor 7" style="html=1;whiteSpace=wrap;fillColor=#0050ef;fontColor=#ffffff;strokeColor=#001DBC;" parent="1" vertex="1">
          <mxGeometry x="670" y="475" width="90" height="30" as="geometry" />
        </mxCell>
        <mxCell id="SRVCZ6UlInMh2GYLfJY8-38" value="ESP32_C3_DEVKIT_C2" style="html=1;whiteSpace=wrap;" parent="1" vertex="1">
          <mxGeometry x="400" y="180" width="160" height="330" as="geometry" />
        </mxCell>
        <mxCell id="SRVCZ6UlInMh2GYLfJY8-52" value="" style="edgeStyle=orthogonalEdgeStyle;rounded=0;orthogonalLoop=1;jettySize=auto;exitX=1;exitY=0.25;exitDx=0;exitDy=0;strokeColor=#ff0000;html=1;shape=link;entryX=0.5;entryY=0;entryDx=0;entryDy=0;" parent="1" target="SRVCZ6UlInMh2GYLfJY8-38" edge="1">
          <mxGeometry relative="1" as="geometry">
            <mxPoint x="80" y="95" as="sourcePoint" />
            <mxPoint x="400" y="215" as="targetPoint" />
          </mxGeometry>
        </mxCell>
        <mxCell id="SRVCZ6UlInMh2GYLfJY8-93" style="edgeStyle=orthogonalEdgeStyle;rounded=0;orthogonalLoop=1;jettySize=auto;html=1;exitX=0.5;exitY=1;exitDx=0;exitDy=0;entryX=0.5;entryY=1;entryDx=0;entryDy=0;shape=link;" parent="1" source="SRVCZ6UlInMh2GYLfJY8-45" target="SRVCZ6UlInMh2GYLfJY8-38" edge="1">
          <mxGeometry relative="1" as="geometry" />
        </mxCell>
        <mxCell id="SRVCZ6UlInMh2GYLfJY8-45" value="5V&lt;div&gt;Trans&lt;/div&gt;" style="html=1;whiteSpace=wrap;fillColor=#ff0101;" parent="1" vertex="1">
          <mxGeometry x="40" y="80" width="40" height="40" as="geometry" />
        </mxCell>
        <mxCell id="SRVCZ6UlInMh2GYLfJY8-48" value="12V&lt;div&gt;Trans&lt;/div&gt;" style="html=1;whiteSpace=wrap;fillColor=#ff0000;" parent="1" vertex="1">
          <mxGeometry x="-80" y="80" width="50" height="40" as="geometry" />
        </mxCell>
        <mxCell id="SRVCZ6UlInMh2GYLfJY8-49" value="5V&lt;div&gt;&lt;br&gt;&lt;/div&gt;" style="text;html=1;align=center;verticalAlign=middle;whiteSpace=wrap;rounded=0;" parent="1" vertex="1">
          <mxGeometry x="450" y="180" width="60" height="30" as="geometry" />
        </mxCell>
        <mxCell id="SRVCZ6UlInMh2GYLfJY8-54" value="&lt;font color=&quot;#ff0000&quot;&gt;5V&lt;/font&gt;" style="text;strokeColor=none;fillColor=none;html=1;fontSize=24;fontStyle=1;verticalAlign=middle;align=center;" parent="1" vertex="1">
          <mxGeometry x="380" y="110" width="100" height="40" as="geometry" />
        </mxCell>
        <mxCell id="SRVCZ6UlInMh2GYLfJY8-56" value="" style="endArrow=classic;html=1;rounded=0;fontColor=#ff0000;strokeColor=#ff0000;shape=link;" parent="1" edge="1">
          <mxGeometry width="50" height="50" relative="1" as="geometry">
            <mxPoint x="399" y="151" as="sourcePoint" />
            <mxPoint x="480" y="150" as="targetPoint" />
            <Array as="points">
              <mxPoint x="399" y="151" />
              <mxPoint x="439" y="151" />
            </Array>
          </mxGeometry>
        </mxCell>
        <mxCell id="SRVCZ6UlInMh2GYLfJY8-67" style="edgeStyle=orthogonalEdgeStyle;rounded=0;orthogonalLoop=1;jettySize=auto;html=1;exitX=0;exitY=0.75;exitDx=0;exitDy=0;entryX=1.008;entryY=0.096;entryDx=0;entryDy=0;entryPerimeter=0;shape=link;fillColor=#0050ef;strokeColor=#001DBC;" parent="1" edge="1">
          <mxGeometry relative="1" as="geometry">
            <mxPoint x="668.72" y="240.82" as="sourcePoint" />
            <mxPoint x="560" y="240" as="targetPoint" />
          </mxGeometry>
        </mxCell>
        <mxCell id="SRVCZ6UlInMh2GYLfJY8-69" style="edgeStyle=orthogonalEdgeStyle;rounded=0;orthogonalLoop=1;jettySize=auto;html=1;exitX=0;exitY=0.75;exitDx=0;exitDy=0;entryX=1.003;entryY=0.339;entryDx=0;entryDy=0;entryPerimeter=0;shape=link;fillColor=#0050ef;strokeColor=#001DBC;" parent="1" edge="1">
          <mxGeometry relative="1" as="geometry">
            <mxPoint x="670" y="305.31" as="sourcePoint" />
            <mxPoint x="560.48" y="304.68" as="targetPoint" />
          </mxGeometry>
        </mxCell>
        <mxCell id="SRVCZ6UlInMh2GYLfJY8-71" style="edgeStyle=orthogonalEdgeStyle;rounded=0;orthogonalLoop=1;jettySize=auto;html=1;exitX=0;exitY=0.75;exitDx=0;exitDy=0;entryX=1.003;entryY=0.645;entryDx=0;entryDy=0;entryPerimeter=0;shape=link;fillColor=#0050ef;strokeColor=#001DBC;" parent="1" edge="1">
          <mxGeometry relative="1" as="geometry">
            <mxPoint x="669.52" y="425" as="sourcePoint" />
            <mxPoint x="560" y="425.35" as="targetPoint" />
          </mxGeometry>
        </mxCell>
        <mxCell id="SRVCZ6UlInMh2GYLfJY8-72" style="edgeStyle=orthogonalEdgeStyle;rounded=0;orthogonalLoop=1;jettySize=auto;html=1;exitX=0;exitY=0.75;exitDx=0;exitDy=0;entryX=1;entryY=0.766;entryDx=0;entryDy=0;entryPerimeter=0;shape=link;fillColor=#0050ef;strokeColor=#001DBC;" parent="1" edge="1">
          <mxGeometry relative="1" as="geometry">
            <mxPoint x="670" y="459.6" as="sourcePoint" />
            <mxPoint x="560" y="459.88" as="targetPoint" />
          </mxGeometry>
        </mxCell>
        <mxCell id="SRVCZ6UlInMh2GYLfJY8-75" style="edgeStyle=orthogonalEdgeStyle;rounded=0;orthogonalLoop=1;jettySize=auto;html=1;exitX=0;exitY=0.75;exitDx=0;exitDy=0;entryX=0.992;entryY=0.22;entryDx=0;entryDy=0;entryPerimeter=0;shape=link;fillColor=#0050ef;strokeColor=#001DBC;" parent="1" edge="1">
          <mxGeometry relative="1" as="geometry">
            <mxPoint x="670" y="280" as="sourcePoint" />
            <mxPoint x="558.72" y="280.1" as="targetPoint" />
          </mxGeometry>
        </mxCell>
        <mxCell id="SRVCZ6UlInMh2GYLfJY8-77" style="edgeStyle=orthogonalEdgeStyle;rounded=0;orthogonalLoop=1;jettySize=auto;html=1;exitX=0;exitY=0.75;exitDx=0;exitDy=0;shape=link;fillColor=#0050ef;strokeColor=#001DBC;entryX=0.75;entryY=1;entryDx=0;entryDy=0;width=4;" parent="1" edge="1">
          <mxGeometry relative="1" as="geometry">
            <mxPoint x="670" y="486.25" as="sourcePoint" />
            <mxPoint x="560" y="493.75" as="targetPoint" />
            <Array as="points">
              <mxPoint x="620" y="486" />
              <mxPoint x="560" y="487" />
            </Array>
          </mxGeometry>
        </mxCell>
        <mxCell id="SRVCZ6UlInMh2GYLfJY8-78" value="GPIO1" style="text;html=1;align=center;verticalAlign=middle;whiteSpace=wrap;rounded=0;" parent="1" vertex="1">
          <mxGeometry x="520" y="230" width="40" height="20" as="geometry" />
        </mxCell>
        <mxCell id="SRVCZ6UlInMh2GYLfJY8-79" value="GPIO2" style="text;html=1;align=center;verticalAlign=middle;whiteSpace=wrap;rounded=0;" parent="1" vertex="1">
          <mxGeometry x="520" y="270" width="40" height="20" as="geometry" />
        </mxCell>
        <mxCell id="SRVCZ6UlInMh2GYLfJY8-80" value="D3" style="text;html=1;align=center;verticalAlign=middle;whiteSpace=wrap;rounded=0;" parent="1" vertex="1">
          <mxGeometry x="530" y="295" width="40" height="20" as="geometry" />
        </mxCell>
        <mxCell id="SRVCZ6UlInMh2GYLfJY8-81" value="D4" style="text;html=1;align=center;verticalAlign=middle;whiteSpace=wrap;rounded=0;" parent="1" vertex="1">
          <mxGeometry x="530" y="370" width="40" height="20" as="geometry" />
        </mxCell>
        <mxCell id="SRVCZ6UlInMh2GYLfJY8-82" value="D5" style="text;html=1;align=center;verticalAlign=middle;whiteSpace=wrap;rounded=0;" parent="1" vertex="1">
          <mxGeometry x="530" y="415" width="40" height="20" as="geometry" />
        </mxCell>
        <mxCell id="SRVCZ6UlInMh2GYLfJY8-83" value="D6" style="text;html=1;align=center;verticalAlign=middle;whiteSpace=wrap;rounded=0;" parent="1" vertex="1">
          <mxGeometry x="530" y="450" width="40" height="20" as="geometry" />
        </mxCell>
        <mxCell id="SRVCZ6UlInMh2GYLfJY8-84" value="D7" style="text;html=1;align=center;verticalAlign=middle;whiteSpace=wrap;rounded=0;" parent="1" vertex="1">
          <mxGeometry x="530" y="480" width="40" height="20" as="geometry" />
        </mxCell>
        <mxCell id="SRVCZ6UlInMh2GYLfJY8-99" style="edgeStyle=orthogonalEdgeStyle;rounded=0;orthogonalLoop=1;jettySize=auto;html=1;exitX=0;exitY=0.5;exitDx=0;exitDy=0;shape=link;" parent="1" source="SRVCZ6UlInMh2GYLfJY8-87" edge="1">
          <mxGeometry relative="1" as="geometry">
            <mxPoint x="60" y="225.24137931034488" as="targetPoint" />
          </mxGeometry>
        </mxCell>
        <mxCell id="SRVCZ6UlInMh2GYLfJY8-87" value="PH Sensor Versterker" style="html=1;whiteSpace=wrap;" parent="1" vertex="1">
          <mxGeometry x="80" y="200" width="110" height="50" as="geometry" />
        </mxCell>
        <mxCell id="SRVCZ6UlInMh2GYLfJY8-92" style="edgeStyle=orthogonalEdgeStyle;rounded=0;orthogonalLoop=1;jettySize=auto;html=1;exitX=1;exitY=0.25;exitDx=0;exitDy=0;shape=link;strokeColor=#ff0000;" parent="1" source="SRVCZ6UlInMh2GYLfJY8-88" edge="1">
          <mxGeometry relative="1" as="geometry">
            <mxPoint x="220" y="210" as="targetPoint" />
          </mxGeometry>
        </mxCell>
        <mxCell id="SRVCZ6UlInMh2GYLfJY8-100" style="edgeStyle=orthogonalEdgeStyle;rounded=0;orthogonalLoop=1;jettySize=auto;html=1;exitX=0;exitY=0.5;exitDx=0;exitDy=0;shape=link;" parent="1" source="SRVCZ6UlInMh2GYLfJY8-88" edge="1">
          <mxGeometry relative="1" as="geometry">
            <mxPoint x="60" y="305.2413793103449" as="targetPoint" />
          </mxGeometry>
        </mxCell>
        <mxCell id="SRVCZ6UlInMh2GYLfJY8-88" value="EC Sensor Versterker" style="html=1;whiteSpace=wrap;" parent="1" vertex="1">
          <mxGeometry x="80" y="280" width="110" height="50" as="geometry" />
        </mxCell>
        <mxCell id="SRVCZ6UlInMh2GYLfJY8-91" style="edgeStyle=orthogonalEdgeStyle;rounded=0;orthogonalLoop=1;jettySize=auto;html=1;exitX=1;exitY=0.25;exitDx=0;exitDy=0;entryX=0.194;entryY=1.019;entryDx=0;entryDy=0;entryPerimeter=0;shape=link;strokeColor=#ff0000;" parent="1" source="SRVCZ6UlInMh2GYLfJY8-87" target="SRVCZ6UlInMh2GYLfJY8-54" edge="1">
          <mxGeometry relative="1" as="geometry">
            <Array as="points">
              <mxPoint x="220" y="213" />
              <mxPoint x="220" y="151" />
            </Array>
          </mxGeometry>
        </mxCell>
        <mxCell id="SRVCZ6UlInMh2GYLfJY8-95" value="GND" style="text;strokeColor=none;fillColor=none;html=1;fontSize=24;fontStyle=1;verticalAlign=middle;align=center;" parent="1" vertex="1">
          <mxGeometry x="50" y="140" width="100" height="40" as="geometry" />
        </mxCell>
        <mxCell id="SRVCZ6UlInMh2GYLfJY8-98" value="GND" style="text;strokeColor=none;fillColor=none;spacingLeft=4;spacingRight=4;overflow=hidden;rotatable=0;points=[[0,0.5],[1,0.5]];portConstraint=eastwest;fontSize=12;whiteSpace=wrap;html=1;" parent="1" vertex="1">
          <mxGeometry x="460" y="485" width="40" height="30" as="geometry" />
        </mxCell>
        <mxCell id="SRVCZ6UlInMh2GYLfJY8-104" value="A0" style="text;strokeColor=none;fillColor=none;spacingLeft=4;spacingRight=4;overflow=hidden;rotatable=0;points=[[0,0.5],[1,0.5]];portConstraint=eastwest;fontSize=12;whiteSpace=wrap;html=1;" parent="1" vertex="1">
          <mxGeometry x="165" y="300" width="40" height="30" as="geometry" />
        </mxCell>
        <mxCell id="SRVCZ6UlInMh2GYLfJY8-105" style="edgeStyle=orthogonalEdgeStyle;rounded=0;orthogonalLoop=1;jettySize=auto;html=1;exitX=1;exitY=0.5;exitDx=0;exitDy=0;shape=link;fillColor=#0050ef;strokeColor=#001DBC;" parent="1" source="SRVCZ6UlInMh2GYLfJY8-87" edge="1">
          <mxGeometry relative="1" as="geometry">
            <mxPoint x="404" y="224" as="targetPoint" />
          </mxGeometry>
        </mxCell>
        <mxCell id="SRVCZ6UlInMh2GYLfJY8-122" value="Trigger" style="edgeLabel;html=1;align=center;verticalAlign=middle;resizable=0;points=[];" parent="SRVCZ6UlInMh2GYLfJY8-105" vertex="1" connectable="0">
          <mxGeometry x="-0.1211" y="-1" relative="1" as="geometry">
            <mxPoint x="-7" y="-1" as="offset" />
          </mxGeometry>
        </mxCell>
        <mxCell id="SRVCZ6UlInMh2GYLfJY8-107" value="D0" style="text;strokeColor=none;fillColor=none;spacingLeft=4;spacingRight=4;overflow=hidden;rotatable=0;points=[[0,0.5],[1,0.5]];portConstraint=eastwest;fontSize=12;whiteSpace=wrap;html=1;" parent="1" vertex="1">
          <mxGeometry x="400" y="210" width="40" height="30" as="geometry" />
        </mxCell>
        <mxCell id="SRVCZ6UlInMh2GYLfJY8-108" value="A1" style="text;strokeColor=none;fillColor=none;spacingLeft=4;spacingRight=4;overflow=hidden;rotatable=0;points=[[0,0.5],[1,0.5]];portConstraint=eastwest;fontSize=12;whiteSpace=wrap;html=1;" parent="1" vertex="1">
          <mxGeometry x="400" y="235" width="40" height="30" as="geometry" />
        </mxCell>
        <mxCell id="SRVCZ6UlInMh2GYLfJY8-114" value="5V&lt;div&gt;&lt;br&gt;&lt;/div&gt;" style="text;html=1;align=center;verticalAlign=middle;whiteSpace=wrap;rounded=0;" parent="1" vertex="1">
          <mxGeometry x="165" y="220" width="30" as="geometry" />
        </mxCell>
        <mxCell id="SRVCZ6UlInMh2GYLfJY8-115" style="edgeStyle=orthogonalEdgeStyle;rounded=0;orthogonalLoop=1;jettySize=auto;html=1;entryX=0;entryY=0;entryDx=0;entryDy=0;" parent="1" source="SRVCZ6UlInMh2GYLfJY8-114" target="SRVCZ6UlInMh2GYLfJY8-114" edge="1">
          <mxGeometry relative="1" as="geometry" />
        </mxCell>
        <mxCell id="SRVCZ6UlInMh2GYLfJY8-116" value="5V&lt;div&gt;&lt;br&gt;&lt;/div&gt;" style="text;html=1;align=center;verticalAlign=middle;whiteSpace=wrap;rounded=0;" parent="1" vertex="1">
          <mxGeometry x="170" y="290" width="20" height="10" as="geometry" />
        </mxCell>
        <mxCell id="SRVCZ6UlInMh2GYLfJY8-119" value="G&lt;div&gt;N&lt;/div&gt;&lt;div&gt;D&lt;/div&gt;" style="text;strokeColor=none;fillColor=none;spacingLeft=4;spacingRight=4;overflow=hidden;rotatable=0;points=[[0,0.5],[1,0.5]];portConstraint=eastwest;fontSize=12;whiteSpace=wrap;html=1;" parent="1" vertex="1">
          <mxGeometry x="80" y="280" width="40" height="50" as="geometry" />
        </mxCell>
        <mxCell id="SRVCZ6UlInMh2GYLfJY8-120" value="G&lt;div&gt;N&lt;/div&gt;&lt;div&gt;D&lt;/div&gt;" style="text;strokeColor=none;fillColor=none;spacingLeft=4;spacingRight=4;overflow=hidden;rotatable=0;points=[[0,0.5],[1,0.5]];portConstraint=eastwest;fontSize=12;whiteSpace=wrap;html=1;" parent="1" vertex="1">
          <mxGeometry x="80" y="200" width="40" height="50" as="geometry" />
        </mxCell>
        <mxCell id="SRVCZ6UlInMh2GYLfJY8-121" value="D0" style="text;strokeColor=none;fillColor=none;spacingLeft=4;spacingRight=4;overflow=hidden;rotatable=0;points=[[0,0.5],[1,0.5]];portConstraint=eastwest;fontSize=12;whiteSpace=wrap;html=1;" parent="1" vertex="1">
          <mxGeometry x="165" y="210" width="40" height="30" as="geometry" />
        </mxCell>
        <mxCell id="SRVCZ6UlInMh2GYLfJY8-123" value="P0" style="text;strokeColor=none;fillColor=none;spacingLeft=4;spacingRight=4;overflow=hidden;rotatable=0;points=[[0,0.5],[1,0.5]];portConstraint=eastwest;fontSize=12;whiteSpace=wrap;html=1;" parent="1" vertex="1">
          <mxGeometry x="165" y="230" width="40" height="30" as="geometry" />
        </mxCell>
        <mxCell id="SRVCZ6UlInMh2GYLfJY8-124" value="MOTOR" style="html=1;whiteSpace=wrap;" parent="1" vertex="1">
          <mxGeometry x="-70" y="560" width="110" height="50" as="geometry" />
        </mxCell>
        <mxCell id="SRVCZ6UlInMh2GYLfJY8-128" style="edgeStyle=orthogonalEdgeStyle;rounded=0;orthogonalLoop=1;jettySize=auto;html=1;exitX=0;exitY=0.5;exitDx=0;exitDy=0;shape=link;strokeColor=#ff0000;" parent="1" source="SRVCZ6UlInMh2GYLfJY8-126" edge="1">
          <mxGeometry relative="1" as="geometry">
            <mxPoint x="220" y="290" as="targetPoint" />
          </mxGeometry>
        </mxCell>
        <mxCell id="SRVCZ6UlInMh2GYLfJY8-143" style="edgeStyle=orthogonalEdgeStyle;rounded=0;orthogonalLoop=1;jettySize=auto;html=1;exitX=0.5;exitY=1;exitDx=0;exitDy=0;shape=link;" parent="1" source="SRVCZ6UlInMh2GYLfJY8-126" edge="1">
          <mxGeometry relative="1" as="geometry">
            <mxPoint x="215.38461538461524" y="530" as="targetPoint" />
          </mxGeometry>
        </mxCell>
        <mxCell id="SRVCZ6UlInMh2GYLfJY8-126" value="LEVEL&lt;div&gt;SCHIFTER&lt;/div&gt;" style="html=1;whiteSpace=wrap;" parent="1" vertex="1">
          <mxGeometry x="160" y="390" width="110" height="80" as="geometry" />
        </mxCell>
        <mxCell id="SRVCZ6UlInMh2GYLfJY8-127" value="&lt;div&gt;3.3V&lt;span style=&quot;color: rgba(0, 0, 0, 0); font-family: monospace; font-size: 0px; text-align: start; text-wrap: nowrap; background-color: initial;&quot;&gt;%3CmxGraphModel%3E%3Croot%3E%3CmxCell%20id%3D%220%22%2F%3E%3CmxCell%20id%3D%221%22%20parent%3D%220%22%2F%3E%3CmxCell%20id%3D%222%22%20value%3D%225V%26lt%3Bdiv%26gt%3B%26lt%3Bbr%26gt%3B%26lt%3B%2Fdiv%26gt%3B%22%20style%3D%22text%3Bhtml%3D1%3Balign%3Dcenter%3BverticalAlign%3Dmiddle%3BwhiteSpace%3Dwrap%3Brounded%3D0%3B%22%20vertex%3D%221%22%20parent%3D%221%22%3E%3CmxGeometry%20x%3D%22370%22%20y%3D%22190%22%20width%3D%2260%22%20height%3D%2230%22%20as%3D%22geometry%22%2F%3E%3C%2FmxCell%3E%3C%2Froot%3E%3C%2FmxGraphModel%3E&lt;/span&gt;&lt;/div&gt;" style="text;html=1;align=center;verticalAlign=middle;whiteSpace=wrap;rounded=0;" parent="1" vertex="1">
          <mxGeometry x="390" y="415" width="60" height="30" as="geometry" />
        </mxCell>
        <mxCell id="SRVCZ6UlInMh2GYLfJY8-129" style="edgeStyle=orthogonalEdgeStyle;rounded=0;orthogonalLoop=1;jettySize=auto;html=1;exitX=1;exitY=0.5;exitDx=0;exitDy=0;entryX=0.167;entryY=0.511;entryDx=0;entryDy=0;entryPerimeter=0;shape=link;strokeColor=#ff0000;" parent="1" source="SRVCZ6UlInMh2GYLfJY8-126" target="SRVCZ6UlInMh2GYLfJY8-127" edge="1">
          <mxGeometry relative="1" as="geometry" />
        </mxCell>
        <mxCell id="SRVCZ6UlInMh2GYLfJY8-130" style="edgeStyle=orthogonalEdgeStyle;rounded=0;orthogonalLoop=1;jettySize=auto;html=1;exitX=1;exitY=0.75;exitDx=0;exitDy=0;entryX=0;entryY=0.819;entryDx=0;entryDy=0;entryPerimeter=0;shape=link;fillColor=#0050ef;strokeColor=#001DBC;" parent="1" source="SRVCZ6UlInMh2GYLfJY8-126" target="SRVCZ6UlInMh2GYLfJY8-38" edge="1">
          <mxGeometry relative="1" as="geometry" />
        </mxCell>
        <mxCell id="SRVCZ6UlInMh2GYLfJY8-131" value="D8" style="text;html=1;align=center;verticalAlign=middle;whiteSpace=wrap;rounded=0;" parent="1" vertex="1">
          <mxGeometry x="400" y="440" width="40" height="20" as="geometry" />
        </mxCell>
        <mxCell id="SRVCZ6UlInMh2GYLfJY8-135" style="edgeStyle=orthogonalEdgeStyle;rounded=0;orthogonalLoop=1;jettySize=auto;html=1;exitX=1;exitY=0.25;exitDx=0;exitDy=0;shape=link;strokeColor=#ff0000;" parent="1" source="SRVCZ6UlInMh2GYLfJY8-133" edge="1">
          <mxGeometry relative="1" as="geometry">
            <mxPoint x="139.99999999999977" y="427.75757575757575" as="targetPoint" />
          </mxGeometry>
        </mxCell>
        <mxCell id="SRVCZ6UlInMh2GYLfJY8-136" style="edgeStyle=orthogonalEdgeStyle;rounded=0;orthogonalLoop=1;jettySize=auto;html=1;exitX=1;exitY=0.5;exitDx=0;exitDy=0;shape=link;" parent="1" source="SRVCZ6UlInMh2GYLfJY8-133" edge="1">
          <mxGeometry relative="1" as="geometry">
            <mxPoint x="59.99999999999977" y="439.8787878787879" as="targetPoint" />
          </mxGeometry>
        </mxCell>
        <mxCell id="SRVCZ6UlInMh2GYLfJY8-139" style="edgeStyle=orthogonalEdgeStyle;rounded=0;orthogonalLoop=1;jettySize=auto;html=1;exitX=0;exitY=0.5;exitDx=0;exitDy=0;shape=link;" parent="1" source="SRVCZ6UlInMh2GYLfJY8-133" edge="1">
          <mxGeometry relative="1" as="geometry">
            <mxPoint x="-110.00000000000023" y="439.8787878787879" as="targetPoint" />
          </mxGeometry>
        </mxCell>
        <mxCell id="SRVCZ6UlInMh2GYLfJY8-140" style="edgeStyle=orthogonalEdgeStyle;rounded=0;orthogonalLoop=1;jettySize=auto;html=1;exitX=0.5;exitY=1;exitDx=0;exitDy=0;entryX=0.5;entryY=0;entryDx=0;entryDy=0;shape=link;strokeColor=#ff0000;" parent="1" source="SRVCZ6UlInMh2GYLfJY8-133" target="SRVCZ6UlInMh2GYLfJY8-124" edge="1">
          <mxGeometry relative="1" as="geometry" />
        </mxCell>
        <mxCell id="SRVCZ6UlInMh2GYLfJY8-133" value="Schakel Relais" style="html=1;whiteSpace=wrap;movable=1;resizable=1;rotatable=1;deletable=1;editable=1;locked=0;connectable=1;align=center;" parent="1" vertex="1">
          <mxGeometry x="-80" y="415" width="120" height="75" as="geometry" />
        </mxCell>
        <mxCell id="SRVCZ6UlInMh2GYLfJY8-134" style="edgeStyle=orthogonalEdgeStyle;rounded=0;orthogonalLoop=1;jettySize=auto;html=1;exitX=0;exitY=0.75;exitDx=0;exitDy=0;entryX=1.007;entryY=0.693;entryDx=0;entryDy=0;entryPerimeter=0;shape=link;strokeColor=#001DBC;fillColor=#0050ef;" parent="1" source="SRVCZ6UlInMh2GYLfJY8-126" target="SRVCZ6UlInMh2GYLfJY8-133" edge="1">
          <mxGeometry relative="1" as="geometry" />
        </mxCell>
        <mxCell id="SRVCZ6UlInMh2GYLfJY8-137" style="edgeStyle=orthogonalEdgeStyle;rounded=0;orthogonalLoop=1;jettySize=auto;html=1;exitX=1;exitY=0.5;exitDx=0;exitDy=0;entryX=0.54;entryY=0.013;entryDx=0;entryDy=0;entryPerimeter=0;shape=link;strokeColor=#ff0000;" parent="1" edge="1">
          <mxGeometry relative="1" as="geometry">
            <mxPoint x="-30" y="99.02" as="sourcePoint" />
            <mxPoint x="-15.200000000000045" y="414.995" as="targetPoint" />
          </mxGeometry>
        </mxCell>
        <mxCell id="SRVCZ6UlInMh2GYLfJY8-141" value="GND" style="text;strokeColor=none;fillColor=none;html=1;fontSize=24;fontStyle=1;verticalAlign=middle;align=center;" parent="1" vertex="1">
          <mxGeometry x="-190" y="480" width="100" height="40" as="geometry" />
        </mxCell>
        <mxCell id="SRVCZ6UlInMh2GYLfJY8-142" value="&lt;font color=&quot;#ff0000&quot;&gt;12V&lt;/font&gt;" style="text;strokeColor=none;fillColor=none;html=1;fontSize=24;fontStyle=1;verticalAlign=middle;align=center;" parent="1" vertex="1">
          <mxGeometry x="-90" y="355" width="100" height="40" as="geometry" />
        </mxCell>
        <mxCell id="RLYcNtaCoqPoEK_IuRuL-2" value="240V AC ~" style="html=1;whiteSpace=wrap;fillColor=#1ba1e2;strokeColor=#006EAF;fontColor=#ffffff;" parent="1" vertex="1">
          <mxGeometry x="-80" y="10" width="160" height="40" as="geometry" />
        </mxCell>
        <mxCell id="RLYcNtaCoqPoEK_IuRuL-3" style="edgeStyle=orthogonalEdgeStyle;rounded=0;orthogonalLoop=1;jettySize=auto;html=1;entryX=0.5;entryY=1;entryDx=0;entryDy=0;shape=link;" parent="1" edge="1">
          <mxGeometry relative="1" as="geometry">
            <Array as="points">
              <mxPoint x="-110" y="100" />
              <mxPoint x="-110" y="630" />
              <mxPoint x="-15" y="630" />
            </Array>
            <mxPoint x="-80" y="100" as="sourcePoint" />
            <mxPoint x="-15" y="610" as="targetPoint" />
          </mxGeometry>
        </mxCell>
        <mxCell id="RLYcNtaCoqPoEK_IuRuL-5" value="" style="shape=link;html=1;rounded=0;fontSize=12;startSize=8;endSize=8;curved=1;" parent="1" edge="1">
          <mxGeometry width="100" relative="1" as="geometry">
            <mxPoint x="-70" y="50" as="sourcePoint" />
            <mxPoint x="-70" y="80" as="targetPoint" />
            <Array as="points">
              <mxPoint x="-70" y="60" />
              <mxPoint x="-70" y="70" />
            </Array>
          </mxGeometry>
        </mxCell>
        <mxCell id="RLYcNtaCoqPoEK_IuRuL-6" value="" style="shape=link;html=1;rounded=0;fontSize=12;startSize=8;endSize=8;curved=1;strokeColor=#ff0000;" parent="1" edge="1">
          <mxGeometry width="100" relative="1" as="geometry">
            <mxPoint x="-40" y="50" as="sourcePoint" />
            <mxPoint x="-40" y="80" as="targetPoint" />
            <Array as="points">
              <mxPoint x="-40" y="60" />
              <mxPoint x="-40" y="70" />
            </Array>
          </mxGeometry>
        </mxCell>
        <mxCell id="RLYcNtaCoqPoEK_IuRuL-7" value="" style="shape=link;html=1;rounded=0;fontSize=12;startSize=8;endSize=8;curved=1;" parent="1" edge="1">
          <mxGeometry width="100" relative="1" as="geometry">
            <mxPoint x="50" y="50" as="sourcePoint" />
            <mxPoint x="50" y="80" as="targetPoint" />
            <Array as="points">
              <mxPoint x="50" y="60" />
              <mxPoint x="50" y="70" />
            </Array>
          </mxGeometry>
        </mxCell>
        <mxCell id="RLYcNtaCoqPoEK_IuRuL-8" value="" style="shape=link;html=1;rounded=0;fontSize=12;startSize=8;endSize=8;curved=1;strokeColor=#ff0000;" parent="1" edge="1">
          <mxGeometry width="100" relative="1" as="geometry">
            <mxPoint x="70" y="50" as="sourcePoint" />
            <mxPoint x="70" y="80" as="targetPoint" />
            <Array as="points">
              <mxPoint x="70" y="60" />
              <mxPoint x="70" y="70" />
            </Array>
          </mxGeometry>
        </mxCell>
        <mxCell id="dKXxmkFowqUNyAQcC725-8" value="LV1" style="text;html=1;align=center;verticalAlign=middle;whiteSpace=wrap;rounded=0;" parent="1" vertex="1">
          <mxGeometry x="230" y="390" width="50" height="20" as="geometry" />
        </mxCell>
        <mxCell id="dKXxmkFowqUNyAQcC725-9" value="LV3" style="text;html=1;align=center;verticalAlign=middle;whiteSpace=wrap;rounded=0;" parent="1" vertex="1">
          <mxGeometry x="225" y="435" width="60" height="30" as="geometry" />
        </mxCell>
        <mxCell id="dKXxmkFowqUNyAQcC725-10" value="HL3" style="text;html=1;align=center;verticalAlign=middle;whiteSpace=wrap;rounded=0;" parent="1" vertex="1">
          <mxGeometry x="145" y="435" width="60" height="30" as="geometry" />
        </mxCell>
        <mxCell id="dKXxmkFowqUNyAQcC725-13" value="HL1" style="text;html=1;align=center;verticalAlign=middle;whiteSpace=wrap;rounded=0;" parent="1" vertex="1">
          <mxGeometry x="145" y="385" width="60" height="30" as="geometry" />
        </mxCell>
        <mxCell id="dKXxmkFowqUNyAQcC725-16" value="5V&lt;div&gt;&lt;br&gt;&lt;/div&gt;" style="text;html=1;align=center;verticalAlign=middle;whiteSpace=wrap;rounded=0;" parent="1" vertex="1">
          <mxGeometry x="160" y="430" width="20" height="10" as="geometry" />
        </mxCell>
        <mxCell id="dKXxmkFowqUNyAQcC725-17" value="&lt;div&gt;3.3V&lt;span style=&quot;color: rgba(0, 0, 0, 0); font-family: monospace; font-size: 0px; text-align: start; text-wrap: nowrap; background-color: initial;&quot;&gt;%3CmxGraphModel%3E%3Croot%3E%3CmxCell%20id%3D%220%22%2F%3E%3CmxCell%20id%3D%221%22%20parent%3D%220%22%2F%3E%3CmxCell%20id%3D%222%22%20value%3D%225V%26lt%3Bdiv%26gt%3B%26lt%3Bbr%26gt%3B%26lt%3B%2Fdiv%26gt%3B%22%20style%3D%22text%3Bhtml%3D1%3Balign%3Dcenter%3BverticalAlign%3Dmiddle%3BwhiteSpace%3Dwrap%3Brounded%3D0%3B%22%20vertex%3D%221%22%20parent%3D%221%22%3E%3CmxGeometry%20x%3D%22370%22%20y%3D%22190%22%20width%3D%2260%22%20height%3D%2230%22%20as%3D%22geometry%22%2F%3E%3C%2FmxCell%3E%3C%2Froot%3E%3C%2FmxGraphModel%3E&lt;/span&gt;&lt;/div&gt;" style="text;html=1;align=center;verticalAlign=middle;whiteSpace=wrap;rounded=0;" parent="1" vertex="1">
          <mxGeometry x="225" y="415" width="60" height="30" as="geometry" />
        </mxCell>
        <mxCell id="dKXxmkFowqUNyAQcC725-18" value="HL2" style="text;html=1;align=center;verticalAlign=middle;whiteSpace=wrap;rounded=0;" parent="1" vertex="1">
          <mxGeometry x="145" y="400" width="60" height="30" as="geometry" />
        </mxCell>
        <mxCell id="dKXxmkFowqUNyAQcC725-19" value="LV2" style="text;html=1;align=center;verticalAlign=middle;whiteSpace=wrap;rounded=0;" parent="1" vertex="1">
          <mxGeometry x="230" y="405" width="50" height="20" as="geometry" />
        </mxCell>
        <mxCell id="dKXxmkFowqUNyAQcC725-22" style="edgeStyle=orthogonalEdgeStyle;rounded=0;orthogonalLoop=1;jettySize=auto;html=1;exitX=0.5;exitY=1;exitDx=0;exitDy=0;" parent="1" source="SRVCZ6UlInMh2GYLfJY8-78" target="SRVCZ6UlInMh2GYLfJY8-78" edge="1">
          <mxGeometry relative="1" as="geometry" />
        </mxCell>
        <mxCell id="dKXxmkFowqUNyAQcC725-23" style="edgeStyle=orthogonalEdgeStyle;rounded=0;orthogonalLoop=1;jettySize=auto;html=1;exitX=0;exitY=0.75;exitDx=0;exitDy=0;entryX=1.003;entryY=0.645;entryDx=0;entryDy=0;entryPerimeter=0;shape=link;fillColor=#0050ef;strokeColor=#001DBC;" parent="1" edge="1">
          <mxGeometry relative="1" as="geometry">
            <mxPoint x="669.52" y="379.54" as="sourcePoint" />
            <mxPoint x="560" y="379.89000000000004" as="targetPoint" />
          </mxGeometry>
        </mxCell>
        <mxCell id="dKXxmkFowqUNyAQcC725-24" value="&lt;div&gt;3.3V&lt;span style=&quot;color: rgba(0, 0, 0, 0); font-family: monospace; font-size: 0px; text-align: start; text-wrap: nowrap; background-color: initial;&quot;&gt;%3CmxGraphModel%3E%3Croot%3E%3CmxCell%20id%3D%220%22%2F%3E%3CmxCell%20id%3D%221%22%20parent%3D%220%22%2F%3E%3CmxCell%20id%3D%222%22%20value%3D%225V%26lt%3Bdiv%26gt%3B%26lt%3Bbr%26gt%3B%26lt%3B%2Fdiv%26gt%3B%22%20style%3D%22text%3Bhtml%3D1%3Balign%3Dcenter%3BverticalAlign%3Dmiddle%3BwhiteSpace%3Dwrap%3Brounded%3D0%3B%22%20vertex%3D%221%22%20parent%3D%221%22%3E%3CmxGeometry%20x%3D%22370%22%20y%3D%22190%22%20width%3D%2260%22%20height%3D%2230%22%20as%3D%22geometry%22%2F%3E%3C%2FmxCell%3E%3C%2Froot%3E%3C%2FmxGraphModel%3E&lt;/span&gt;&lt;/div&gt;" style="text;html=1;align=center;verticalAlign=middle;whiteSpace=wrap;rounded=0;" parent="1" vertex="1">
          <mxGeometry x="510" y="195" width="60" height="30" as="geometry" />
        </mxCell>
        <mxCell id="dKXxmkFowqUNyAQcC725-25" value="" style="shape=link;html=1;rounded=0;strokeColor=#FF0000;" parent="1" edge="1">
          <mxGeometry width="100" relative="1" as="geometry">
            <mxPoint x="560" y="210" as="sourcePoint" />
            <mxPoint x="629" y="501" as="targetPoint" />
            <Array as="points">
              <mxPoint x="600" y="210" />
              <mxPoint x="600" y="501" />
            </Array>
          </mxGeometry>
        </mxCell>
        <mxCell id="dKXxmkFowqUNyAQcC725-29" value="" style="rounded=0;whiteSpace=wrap;html=1;fillColor=#d5e8d4;strokeColor=#82b366;" parent="1" vertex="1">
          <mxGeometry x="630" y="225" width="30" height="15" as="geometry" />
        </mxCell>
        <mxCell id="dKXxmkFowqUNyAQcC725-30" value="&lt;div style=&quot;text-align: start;&quot;&gt;&lt;span style=&quot;background-color: initial;&quot;&gt;&lt;font style=&quot;font-size: 6px;&quot;&gt;470 Ohm&lt;/font&gt;&lt;/span&gt;&lt;/div&gt;" style="text;html=1;align=center;verticalAlign=middle;whiteSpace=wrap;rounded=0;fontSize=8;" parent="1" vertex="1">
          <mxGeometry x="623.75" y="220" width="42.5" height="21.25" as="geometry" />
        </mxCell>
        <mxCell id="dKXxmkFowqUNyAQcC725-34" value="" style="rounded=0;whiteSpace=wrap;html=1;fillColor=#d5e8d4;strokeColor=#82b366;" parent="1" vertex="1">
          <mxGeometry x="630" y="260" width="30" height="15" as="geometry" />
        </mxCell>
        <mxCell id="dKXxmkFowqUNyAQcC725-35" value="" style="rounded=0;whiteSpace=wrap;html=1;fillColor=#d5e8d4;strokeColor=#82b366;" parent="1" vertex="1">
          <mxGeometry x="630" y="307.5" width="30" height="15" as="geometry" />
        </mxCell>
        <mxCell id="dKXxmkFowqUNyAQcC725-36" value="" style="rounded=0;whiteSpace=wrap;html=1;fillColor=#d5e8d4;strokeColor=#82b366;" parent="1" vertex="1">
          <mxGeometry x="630" y="385" width="30" height="15" as="geometry" />
        </mxCell>
        <mxCell id="dKXxmkFowqUNyAQcC725-37" value="" style="rounded=0;whiteSpace=wrap;html=1;fillColor=#d5e8d4;strokeColor=#82b366;" parent="1" vertex="1">
          <mxGeometry x="630" y="405" width="30" height="15" as="geometry" />
        </mxCell>
        <mxCell id="dKXxmkFowqUNyAQcC725-38" value="" style="rounded=0;whiteSpace=wrap;html=1;fillColor=#d5e8d4;strokeColor=#82b366;" parent="1" vertex="1">
          <mxGeometry x="630" y="437.5" width="30" height="15" as="geometry" />
        </mxCell>
        <mxCell id="dKXxmkFowqUNyAQcC725-39" value="" style="rounded=0;whiteSpace=wrap;html=1;fillColor=#d5e8d4;strokeColor=#82b366;" parent="1" vertex="1">
          <mxGeometry x="630" y="495" width="30" height="15" as="geometry" />
        </mxCell>
        <mxCell id="dKXxmkFowqUNyAQcC725-41" value="&lt;font style=&quot;font-size: 6px;&quot;&gt;470 Ohm&lt;/font&gt;" style="text;html=1;align=center;verticalAlign=middle;whiteSpace=wrap;rounded=0;" parent="1" vertex="1">
          <mxGeometry x="615" y="250" width="60" height="30" as="geometry" />
        </mxCell>
        <mxCell id="dKXxmkFowqUNyAQcC725-42" value="&lt;font style=&quot;font-size: 6px;&quot;&gt;470 Ohm&lt;/font&gt;" style="text;html=1;align=center;verticalAlign=middle;whiteSpace=wrap;rounded=0;" parent="1" vertex="1">
          <mxGeometry x="615" y="297" width="60" height="30" as="geometry" />
        </mxCell>
        <mxCell id="dKXxmkFowqUNyAQcC725-43" value="&lt;font style=&quot;font-size: 6px;&quot;&gt;470 Ohm&lt;/font&gt;" style="text;html=1;align=center;verticalAlign=middle;whiteSpace=wrap;rounded=0;" parent="1" vertex="1">
          <mxGeometry x="615" y="375" width="60" height="30" as="geometry" />
        </mxCell>
        <mxCell id="dKXxmkFowqUNyAQcC725-44" value="&lt;font style=&quot;font-size: 6px;&quot;&gt;470 Ohm&lt;/font&gt;" style="text;html=1;align=center;verticalAlign=middle;whiteSpace=wrap;rounded=0;" parent="1" vertex="1">
          <mxGeometry x="615" y="395" width="60" height="30" as="geometry" />
        </mxCell>
        <mxCell id="dKXxmkFowqUNyAQcC725-45" value="&lt;font style=&quot;font-size: 6px;&quot;&gt;470 Ohm&lt;/font&gt;" style="text;html=1;align=center;verticalAlign=middle;whiteSpace=wrap;rounded=0;" parent="1" vertex="1">
          <mxGeometry x="615" y="427" width="60" height="30" as="geometry" />
        </mxCell>
        <mxCell id="dKXxmkFowqUNyAQcC725-46" value="&lt;font style=&quot;font-size: 6px;&quot;&gt;470 Ohm&lt;/font&gt;" style="text;html=1;align=center;verticalAlign=middle;whiteSpace=wrap;rounded=0;" parent="1" vertex="1">
          <mxGeometry x="615" y="485" width="60" height="30" as="geometry" />
        </mxCell>
        <mxCell id="dKXxmkFowqUNyAQcC725-47" value="" style="shape=link;html=1;rounded=0;strokeColor=#FF0000;" parent="1" edge="1">
          <mxGeometry width="100" relative="1" as="geometry">
            <mxPoint x="603" y="230" as="sourcePoint" />
            <mxPoint x="630" y="230" as="targetPoint" />
          </mxGeometry>
        </mxCell>
        <mxCell id="dKXxmkFowqUNyAQcC725-48" value="" style="shape=link;html=1;rounded=0;strokeColor=#FF0000;" parent="1" edge="1">
          <mxGeometry width="100" relative="1" as="geometry">
            <mxPoint x="603" y="264.86" as="sourcePoint" />
            <mxPoint x="630" y="264.86" as="targetPoint" />
            <Array as="points">
              <mxPoint x="610" y="264.86" />
            </Array>
          </mxGeometry>
        </mxCell>
        <mxCell id="dKXxmkFowqUNyAQcC725-49" value="" style="shape=link;html=1;rounded=0;strokeColor=#FF0000;" parent="1" edge="1">
          <mxGeometry width="100" relative="1" as="geometry">
            <mxPoint x="603" y="314.86" as="sourcePoint" />
            <mxPoint x="630" y="314.86" as="targetPoint" />
          </mxGeometry>
        </mxCell>
        <mxCell id="dKXxmkFowqUNyAQcC725-50" value="" style="shape=link;html=1;rounded=0;strokeColor=#FF0000;" parent="1" edge="1">
          <mxGeometry width="100" relative="1" as="geometry">
            <mxPoint x="603" y="392.36" as="sourcePoint" />
            <mxPoint x="630" y="392.36" as="targetPoint" />
          </mxGeometry>
        </mxCell>
        <mxCell id="dKXxmkFowqUNyAQcC725-51" value="" style="shape=link;html=1;rounded=0;strokeColor=#FF0000;" parent="1" edge="1">
          <mxGeometry width="100" relative="1" as="geometry">
            <mxPoint x="603" y="409.86" as="sourcePoint" />
            <mxPoint x="630" y="409.86" as="targetPoint" />
          </mxGeometry>
        </mxCell>
        <mxCell id="dKXxmkFowqUNyAQcC725-52" value="" style="shape=link;html=1;rounded=0;strokeColor=#FF0000;" parent="1" edge="1">
          <mxGeometry width="100" relative="1" as="geometry">
            <mxPoint x="603" y="444.72" as="sourcePoint" />
            <mxPoint x="630" y="444.72" as="targetPoint" />
          </mxGeometry>
        </mxCell>
        <mxCell id="dKXxmkFowqUNyAQcC725-57" value="" style="shape=link;html=1;rounded=0;strokeColor=#FF0000;" parent="1" edge="1">
          <mxGeometry width="100" relative="1" as="geometry">
            <mxPoint x="660" y="229.72" as="sourcePoint" />
            <mxPoint x="670" y="230" as="targetPoint" />
          </mxGeometry>
        </mxCell>
        <mxCell id="dKXxmkFowqUNyAQcC725-60" value="" style="shape=link;html=1;rounded=0;strokeColor=#FF0000;" parent="1" edge="1">
          <mxGeometry width="100" relative="1" as="geometry">
            <mxPoint x="659" y="267.36" as="sourcePoint" />
            <mxPoint x="670" y="267.5" as="targetPoint" />
            <Array as="points" />
          </mxGeometry>
        </mxCell>
        <mxCell id="dKXxmkFowqUNyAQcC725-61" value="" style="shape=link;html=1;rounded=0;strokeColor=#FF0000;" parent="1" edge="1">
          <mxGeometry width="100" relative="1" as="geometry">
            <mxPoint x="659" y="315" as="sourcePoint" />
            <mxPoint x="670" y="315.14" as="targetPoint" />
            <Array as="points" />
          </mxGeometry>
        </mxCell>
        <mxCell id="dKXxmkFowqUNyAQcC725-62" value="" style="shape=link;html=1;rounded=0;strokeColor=#FF0000;" parent="1" edge="1">
          <mxGeometry width="100" relative="1" as="geometry">
            <mxPoint x="660" y="392.36" as="sourcePoint" />
            <mxPoint x="671" y="392.5" as="targetPoint" />
            <Array as="points" />
          </mxGeometry>
        </mxCell>
        <mxCell id="dKXxmkFowqUNyAQcC725-63" value="" style="shape=link;html=1;rounded=0;strokeColor=#FF0000;" parent="1" edge="1">
          <mxGeometry width="100" relative="1" as="geometry">
            <mxPoint x="660" y="412.36" as="sourcePoint" />
            <mxPoint x="671" y="412.5" as="targetPoint" />
            <Array as="points" />
          </mxGeometry>
        </mxCell>
        <mxCell id="dKXxmkFowqUNyAQcC725-64" value="" style="shape=link;html=1;rounded=0;strokeColor=#FF0000;" parent="1" edge="1">
          <mxGeometry width="100" relative="1" as="geometry">
            <mxPoint x="660" y="445" as="sourcePoint" />
            <mxPoint x="671" y="445.14" as="targetPoint" />
            <Array as="points" />
          </mxGeometry>
        </mxCell>
        <mxCell id="dKXxmkFowqUNyAQcC725-65" value="" style="shape=link;html=1;rounded=0;strokeColor=#FF0000;" parent="1" edge="1">
          <mxGeometry width="100" relative="1" as="geometry">
            <mxPoint x="660" y="499.86" as="sourcePoint" />
            <mxPoint x="671" y="500" as="targetPoint" />
            <Array as="points" />
          </mxGeometry>
        </mxCell>
        <mxCell id="dKXxmkFowqUNyAQcC725-67" value="" style="shape=link;html=1;rounded=0;exitX=0.75;exitY=0;exitDx=0;exitDy=0;fillColor=#008a00;strokeColor=#005700;" parent="1" edge="1">
          <mxGeometry width="100" relative="1" as="geometry">
            <mxPoint x="270" y="400" as="sourcePoint" />
            <mxPoint x="402.5" y="244.66" as="targetPoint" />
            <Array as="points">
              <mxPoint x="380" y="400" />
              <mxPoint x="380" y="330" />
              <mxPoint x="380" y="245" />
            </Array>
          </mxGeometry>
        </mxCell>
        <mxCell id="dKXxmkFowqUNyAQcC725-70" value="" style="shape=link;html=1;rounded=0;width=6.666666666666664;entryX=0.25;entryY=0;entryDx=0;entryDy=0;fillColor=#008a00;strokeColor=#005700;" parent="1" target="dKXxmkFowqUNyAQcC725-18" edge="1">
          <mxGeometry width="100" relative="1" as="geometry">
            <mxPoint x="190" y="244.76" as="sourcePoint" />
            <mxPoint x="290" y="244.76" as="targetPoint" />
            <Array as="points">
              <mxPoint x="260" y="245" />
              <mxPoint x="260" y="370" />
              <mxPoint x="150" y="370" />
              <mxPoint x="150" y="400" />
            </Array>
          </mxGeometry>
        </mxCell>
        <mxCell id="dKXxmkFowqUNyAQcC725-82" value="" style="rounded=0;whiteSpace=wrap;html=1;" parent="1" vertex="1">
          <mxGeometry x="280" y="280" width="90" height="50" as="geometry" />
        </mxCell>
        <mxCell id="dKXxmkFowqUNyAQcC725-83" value="" style="shape=link;html=1;rounded=0;entryX=0;entryY=0.25;entryDx=0;entryDy=0;strokeColor=#FF0000;" parent="1" target="dKXxmkFowqUNyAQcC725-82" edge="1">
          <mxGeometry width="100" relative="1" as="geometry">
            <mxPoint x="222" y="292" as="sourcePoint" />
            <mxPoint x="272" y="292" as="targetPoint" />
          </mxGeometry>
        </mxCell>
        <mxCell id="dKXxmkFowqUNyAQcC725-84" value="Analog&lt;div&gt;versterker&lt;/div&gt;" style="text;html=1;align=center;verticalAlign=middle;whiteSpace=wrap;rounded=0;" parent="1" vertex="1">
          <mxGeometry x="295" y="285" width="60" height="30" as="geometry" />
        </mxCell>
        <mxCell id="dKXxmkFowqUNyAQcC725-85" value="+" style="text;html=1;align=center;verticalAlign=middle;whiteSpace=wrap;rounded=0;" parent="1" vertex="1">
          <mxGeometry x="260" y="277.5" width="60" height="30" as="geometry" />
        </mxCell>
        <mxCell id="dKXxmkFowqUNyAQcC725-86" value="-" style="text;html=1;align=center;verticalAlign=middle;whiteSpace=wrap;rounded=0;" parent="1" vertex="1">
          <mxGeometry x="295" y="307.5" width="60" height="30" as="geometry" />
        </mxCell>
        <mxCell id="dKXxmkFowqUNyAQcC725-88" value="" style="shape=link;html=1;rounded=0;" parent="1" edge="1">
          <mxGeometry width="100" relative="1" as="geometry">
            <mxPoint x="325" y="332" as="sourcePoint" />
            <mxPoint x="326" y="526" as="targetPoint" />
          </mxGeometry>
        </mxCell>
        <mxCell id="dKXxmkFowqUNyAQcC725-89" value="" style="shape=link;html=1;rounded=0;entryX=-0.007;entryY=0.686;entryDx=0;entryDy=0;entryPerimeter=0;fillColor=#008a00;strokeColor=#005700;" parent="1" target="dKXxmkFowqUNyAQcC725-82" edge="1">
          <mxGeometry width="100" relative="1" as="geometry">
            <mxPoint x="190" y="315" as="sourcePoint" />
            <mxPoint x="290" y="315" as="targetPoint" />
          </mxGeometry>
        </mxCell>
        <mxCell id="dKXxmkFowqUNyAQcC725-90" value="A0" style="text;strokeColor=none;fillColor=none;spacingLeft=4;spacingRight=4;overflow=hidden;rotatable=0;points=[[0,0.5],[1,0.5]];portConstraint=eastwest;fontSize=12;whiteSpace=wrap;html=1;" parent="1" vertex="1">
          <mxGeometry x="277" y="300" width="40" height="30" as="geometry" />
        </mxCell>
        <mxCell id="dKXxmkFowqUNyAQcC725-91" value="vcc" style="text;html=1;align=center;verticalAlign=middle;whiteSpace=wrap;rounded=0;" parent="1" vertex="1">
          <mxGeometry y="415" width="60" height="30" as="geometry" />
        </mxCell>
        <mxCell id="dKXxmkFowqUNyAQcC725-93" value="&lt;font style=&quot;font-size: 6px;&quot;&gt;gnd&lt;/font&gt;" style="text;html=1;align=center;verticalAlign=middle;whiteSpace=wrap;rounded=0;" parent="1" vertex="1">
          <mxGeometry y="435" width="60" height="30" as="geometry" />
        </mxCell>
        <mxCell id="dKXxmkFowqUNyAQcC725-94" value="in" style="text;html=1;align=center;verticalAlign=middle;whiteSpace=wrap;rounded=0;" parent="1" vertex="1">
          <mxGeometry y="450" width="60" height="30" as="geometry" />
        </mxCell>
        <mxCell id="dKXxmkFowqUNyAQcC725-95" value="NO" style="text;html=1;align=center;verticalAlign=middle;whiteSpace=wrap;rounded=0;" parent="1" vertex="1">
          <mxGeometry x="-45" y="410" width="60" height="30" as="geometry" />
        </mxCell>
        <mxCell id="dKXxmkFowqUNyAQcC725-96" value="NO" style="text;html=1;align=center;verticalAlign=middle;whiteSpace=wrap;rounded=0;" parent="1" vertex="1">
          <mxGeometry x="-50" y="460" width="60" height="30" as="geometry" />
        </mxCell>
        <mxCell id="dKXxmkFowqUNyAQcC725-97" value="COM" style="text;html=1;align=center;verticalAlign=middle;whiteSpace=wrap;rounded=0;" parent="1" vertex="1">
          <mxGeometry x="-90" y="425" width="60" height="30" as="geometry" />
        </mxCell>
        <mxCell id="dKXxmkFowqUNyAQcC725-98" value="VCC" style="text;html=1;align=center;verticalAlign=middle;whiteSpace=wrap;rounded=0;" parent="1" vertex="1">
          <mxGeometry x="-45" y="555" width="60" height="30" as="geometry" />
        </mxCell>
        <mxCell id="dKXxmkFowqUNyAQcC725-99" value="GND" style="text;html=1;align=center;verticalAlign=middle;whiteSpace=wrap;rounded=0;" parent="1" vertex="1">
          <mxGeometry x="-45" y="585" width="60" height="30" as="geometry" />
        </mxCell>
        <mxCell id="dKXxmkFowqUNyAQcC725-100" value="" style="shape=link;html=1;rounded=0;entryX=0.003;entryY=0.426;entryDx=0;entryDy=0;entryPerimeter=0;fillColor=#008a00;strokeColor=#005700;" parent="1" target="SRVCZ6UlInMh2GYLfJY8-38" edge="1">
          <mxGeometry width="100" relative="1" as="geometry">
            <mxPoint x="370" y="320" as="sourcePoint" />
            <mxPoint x="440" y="320" as="targetPoint" />
          </mxGeometry>
        </mxCell>
        <mxCell id="dKXxmkFowqUNyAQcC725-101" value="A2" style="text;html=1;align=center;verticalAlign=middle;whiteSpace=wrap;rounded=0;" parent="1" vertex="1">
          <mxGeometry x="384" y="307.5" width="60" height="30" as="geometry" />
        </mxCell>
      </root>
    </mxGraphModel>
  </diagram>
</mxfile>
